<?xml version="1.0" standalone="no"?>
<!DOCTYPE svg PUBLIC "-//W3C//DTD SVG 20010904//EN"
 "http://www.w3.org/TR/2001/REC-SVG-20010904/DTD/svg10.dtd">
<svg version="1.0" xmlns="http://www.w3.org/2000/svg"
 width="600.000000pt" height="474.000000pt" viewBox="0 0 600.000000 474.000000"
 preserveAspectRatio="xMidYMid meet">

<g transform="translate(0.000000,474.000000) scale(0.100000,-0.100000)"
fill="#000000" stroke="none">
<path d="M4250 4414 c-88 -23 -176 -71 -215 -117 -98 -115 -146 -307 -114
-459 27 -127 133 -264 247 -319 45 -22 194 -49 273 -49 47 0 145 33 203 69 19
12 52 41 75 66 93 101 135 201 146 347 7 95 -11 163 -66 249 -34 53 -134 151
-178 174 -98 50 -263 68 -371 39z"/>
<path d="M150 4199 c-34 -50 -60 -92 -58 -93 2 -2 58 -40 126 -85 l122 -81 0
32 c0 18 3 76 6 129 l7 96 -59 40 c-32 22 -64 43 -71 47 -8 4 -34 -26 -73 -85z"/>
<path d="M397 4040 c-3 -67 -4 -126 -1 -133 7 -19 261 -183 270 -175 1 2 0 58
-3 126 l-6 123 -71 53 c-111 82 -173 126 -178 126 -3 0 -8 -54 -11 -120z"/>
<path d="M715 3823 c4 -65 8 -123 10 -130 4 -11 207 -153 220 -153 3 0 5 58 5
128 l0 128 -42 24 c-24 13 -75 45 -115 72 -40 26 -75 48 -78 48 -3 0 -3 -53 0
-117z"/>
<path d="M1010 3616 l0 -125 149 -100 c83 -56 153 -101 156 -101 4 0 4 55 0
123 -7 112 -9 124 -33 150 -14 15 -29 27 -34 27 -13 0 -208 132 -208 142 0 4
-7 8 -15 8 -13 0 -15 -20 -15 -124z"/>
<path d="M2985 3691 c-260 -42 -453 -94 -675 -184 -134 -55 -270 -115 -270
-120 1 -23 46 -137 69 -173 16 -27 42 -91 57 -141 16 -51 34 -93 40 -93 6 0
62 24 125 54 120 57 266 107 361 125 129 23 391 35 518 23 67 -7 129 -16 137
-21 12 -6 -1 -32 -67 -127 -44 -65 -149 -219 -232 -341 l-150 -223 -124 86
-124 85 0 -115 c0 -93 -3 -117 -15 -124 -12 -6 2 -20 60 -60 l75 -53 -80 -119
-80 -120 -244 0 c-423 0 -665 -40 -901 -150 -120 -55 -182 -99 -270 -191 -98
-102 -135 -155 -185 -262 -76 -165 -111 -311 -131 -539 -11 -130 -6 -250 18
-402 5 -35 4 -37 -13 -28 -10 6 -77 57 -149 113 -71 56 -144 108 -162 117
l-32 15 -40 -44 c-22 -24 -40 -51 -41 -60 0 -16 91 -98 255 -229 44 -35 103
-85 131 -111 l50 -46 280 5 c153 2 280 6 282 7 1 1 -11 54 -27 117 -85 329
-97 585 -37 759 27 77 91 191 128 227 51 51 155 120 190 126 20 4 70 20 109
37 129 53 180 62 354 62 178 0 244 -9 388 -55 279 -88 743 -393 1209 -794 152
-132 398 -355 398 -363 0 -3 29 -36 63 -72 l62 -67 180 5 c179 5 180 5 200 31
11 14 110 134 220 267 110 133 206 254 214 269 13 23 12 28 -3 44 -9 11 -40
32 -68 47 l-51 28 -19 -24 c-66 -83 -262 -298 -282 -308 -21 -12 -33 -5 -172
107 -82 65 -261 209 -399 319 -302 241 -695 558 -749 605 l-39 34 59 92 c32
51 62 92 66 92 9 0 443 -292 475 -320 12 -10 59 -44 105 -75 l83 -55 7 52 c3
29 6 85 7 125 1 69 0 72 -30 94 l-30 21 25 27 c67 70 87 195 46 287 -42 97
-121 153 -226 162 -105 8 -202 -40 -251 -126 -14 -26 -28 -49 -29 -51 -2 -2
-19 7 -39 19 -22 14 -32 26 -28 34 35 54 218 322 223 326 4 3 72 102 151 219
79 118 147 219 150 224 10 14 83 -37 122 -85 43 -53 78 -123 109 -214 19 -58
23 -88 21 -184 -1 -102 -4 -121 -27 -167 -16 -33 -37 -58 -56 -68 -16 -8 -32
-25 -34 -38 -8 -37 -36 -283 -36 -312 l0 -28 108 5 c103 4 110 6 207 52 86 42
111 60 190 140 64 64 101 111 127 161 88 171 121 374 82 506 -24 81 -138 304
-202 394 -91 127 -314 338 -495 465 -157 112 -445 231 -637 265 -148 26 -436
29 -585 6z m905 -1776 c0 -15 -7 -40 -16 -56 -12 -25 -18 -28 -30 -18 -19 16
-18 58 3 81 23 26 43 23 43 -7z"/>
<path d="M1364 3478 c3 -13 6 -69 6 -126 l0 -102 46 -33 c94 -65 89 -57 71
-112 -77 -225 128 -457 359 -406 58 13 118 45 161 84 l22 20 48 -36 c85 -64
164 -119 167 -115 2 1 6 58 10 125 l7 121 -34 26 c-19 14 -37 26 -41 26 -3 0
-24 11 -45 25 -33 22 -39 33 -45 71 -18 136 -111 234 -258 274 -38 10 -60 10
-112 0 l-65 -12 -48 34 c-26 19 -67 45 -90 58 -24 13 -43 27 -43 32 0 4 -5 8
-11 8 -6 0 -30 14 -54 30 -52 36 -59 37 -51 8z"/>
<path d="M2310 2832 c0 -21 -3 -80 -6 -129 l-7 -91 137 -93 c75 -52 141 -96
147 -97 6 -3 9 45 7 128 l-3 133 -137 94 -138 94 0 -39z"/>
<path d="M4187 1583 c-2 -4 -8 -61 -11 -125 l-7 -117 120 -80 c66 -45 123 -81
126 -81 3 0 5 58 5 130 l0 130 -107 72 c-125 84 -120 81 -126 71z"/>
<path d="M4470 1281 c0 -83 -4 -121 -12 -123 -6 -2 66 -57 161 -122 96 -64
177 -114 181 -109 3 4 32 45 63 90 l57 82 -128 87 c-70 48 -169 116 -219 151
-51 35 -95 63 -98 63 -3 0 -5 -54 -5 -119z"/>
</g>
</svg>
